<svg xmlns="http://www.w3.org/2000/svg" 
    xmlns:xlink="http://www.w3.org/1999/xlink" width="24" height="24" viewBox="0 0 24 24">
    <defs>
        <style>.it-a{fill:url(#it-a);}.it-b{fill:#fff;}</style>
        <linearGradient id="it-a" x1="0.146" y1="0.146" x2="0.854" y2="0.854" gradientUnits="objectBoundingBox">
            <stop offset="0" stop-color="#00cdff"/>
            <stop offset="1" stop-color="#0080ff"/>
        </linearGradient>
    </defs>
    <circle class="it-a" cx="12" cy="12" r="12" transform="translate(0)"/>
    <path class="it-b" d="M114.116,128.015a5.993,5.993,0,0,1-1.48.418c.239-.039.586-.466.728-.641a2.7,2.7,0,0,0,.493-.889c.015-.024.024-.058,0-.078a.086.086,0,0,0-.078,0,7.583,7.583,0,0,1-1.754.665.115.115,0,0,1-.122-.034,1.151,1.151,0,0,0-.151-.155,3.244,3.244,0,0,0-.85-.52,2.987,2.987,0,0,0-1.3-.209,3.146,3.146,0,0,0-2.233,1.156,3.022,3.022,0,0,0-.6,1.185,3.181,3.181,0,0,0-.029,1.253c.01.068,0,.078-.059.068a9.389,9.389,0,0,1-6.029-3.05c-.068-.078-.107-.078-.166,0a3.019,3.019,0,0,0,.523,3.589,4.791,4.791,0,0,0,.371.325,3.049,3.049,0,0,1-1.163-.325c-.068-.044-.107-.019-.112.058a2.1,2.1,0,0,0,.02.345,3.07,3.07,0,0,0,1.905,2.447,1.769,1.769,0,0,0,.386.117,3.518,3.518,0,0,1-1.143.034c-.083-.015-.117.024-.083.107a3.217,3.217,0,0,0,2.4,2c.107.019.215.019.327.044,0,.01-.015.01-.02.019a3.8,3.8,0,0,1-1.637.864,5.854,5.854,0,0,1-2.487.316c-.132-.019-.161-.019-.2,0s0,.053.039.087c.171.112.342.209.518.306a8.28,8.28,0,0,0,1.661.66,8.295,8.295,0,0,0,10.973-8.537c0-.092.112-.146.176-.194a5.729,5.729,0,0,0,1.168-1.209.36.36,0,0,0,.078-.233V128C114.175,127.976,114.175,127.985,114.116,128.015Z" transform="translate(-94.901 -120.565)"/>
</svg>