<svg xmlns="http://www.w3.org/2000/svg" width="24" height="16" viewBox="0 0 24 16">
    <g transform="translate(0 0)">
        <g transform="translate(0 0)">
            <path d="M23.609,117.568a15.656,15.656,0,0,0-5.045-4.859,12.823,12.823,0,0,0-6.38-1.811c-.062,0-.309,0-.371,0a12.823,12.823,0,0,0-6.38,1.811,15.656,15.656,0,0,0-5.045,4.859,2.464,2.464,0,0,0,0,2.658,15.656,15.656,0,0,0,5.045,4.859,12.822,12.822,0,0,0,6.38,1.811c.062,0,.309,0,.371,0a12.823,12.823,0,0,0,6.38-1.811,15.656,15.656,0,0,0,5.045-4.859A2.464,2.464,0,0,0,23.609,117.568Zm-17.74,6.489a14.622,14.622,0,0,1-4.712-4.538,1.155,1.155,0,0,1,0-1.245,14.621,14.621,0,0,1,4.712-4.538,12.747,12.747,0,0,1,1.586-.79,8.964,8.964,0,0,0,0,11.9A12.748,12.748,0,0,1,5.869,124.057ZM12,125.75c-3.213,0-5.827-3.074-5.827-6.853s2.614-6.853,5.827-6.853,5.827,3.074,5.827,6.853S15.211,125.75,12,125.75Zm10.841-6.23a14.621,14.621,0,0,1-4.712,4.538,12.737,12.737,0,0,1-1.585.788,8.964,8.964,0,0,0,0-11.9,12.74,12.74,0,0,1,1.587.791,14.622,14.622,0,0,1,4.712,4.538A1.155,1.155,0,0,1,22.839,119.52Z" transform="translate(0.002 -110.897)"/>
        </g>
        <g transform="translate(9.565 5.565)">
            <path d="M205.24,202.8a2.435,2.435,0,1,0,2.435,2.435A2.438,2.438,0,0,0,205.24,202.8Zm0,3.917a1.482,1.482,0,1,1,1.482-1.482A1.483,1.483,0,0,1,205.24,206.721Z" transform="translate(-202.805 -202.804)"/>
        </g>
    </g>
</svg>