<svg xmlns="http://www.w3.org/2000/svg" width="24" height="24" viewBox="0 0 24 24">
    <defs>
        <style>.a{fill:currentColor;}.b{fill:#fff;}</style>
    </defs>
    <path class="a" d="M29,24.073A4.929,4.929,0,0,1,24.068,29H9.932A4.932,4.932,0,0,1,5,24.073V9.932A4.933,4.933,0,0,1,9.932,5H24.073A4.932,4.932,0,0,1,29,9.932Z" transform="translate(-5 -5)"/>
    <path class="b" d="M89.322,125.824c6.142,0,9.5-4.28,9.5-7.991,0-.12,0-.241-.01-.361a6.2,6.2,0,0,0,1.664-1.456,7.589,7.589,0,0,1-1.917.441,2.979,2.979,0,0,0,1.469-1.552,7.445,7.445,0,0,1-2.122.682,3.652,3.652,0,0,0-2.437-.887,3.108,3.108,0,0,0-3.338,2.808,2.407,2.407,0,0,0,.086.642,10.174,10.174,0,0,1-6.882-2.936,2.466,2.466,0,0,0-.453,1.412,2.718,2.718,0,0,0,1.488,2.339,3.789,3.789,0,0,1-1.512-.353v.036a2.979,2.979,0,0,0,2.675,2.752,3.891,3.891,0,0,1-.877.1,4.063,4.063,0,0,1-.629-.052,3.323,3.323,0,0,0,3.119,1.954,7.779,7.779,0,0,1-4.945,1.163,10.85,10.85,0,0,0,5.122,1.26" transform="translate(-80.086 -108.059)"/>
</svg>