<svg xmlns="http://www.w3.org/2000/svg" 
    xmlns:xlink="http://www.w3.org/1999/xlink" width="24" height="24" viewBox="0 0 24 24">
    <defs>
        <style>.ig-a{fill:url(#ig-a);}.ig-b{fill:#fff;}</style>
        <linearGradient id="ig-a" x1="0.146" y1="0.146" x2="0.853" y2="0.853" gradientUnits="objectBoundingBox">
            <stop offset="0" stop-color="#ff4c3c"/>
            <stop offset="0.956" stop-color="#ef053e"/>
            <stop offset="1" stop-color="#ee023e"/>
        </linearGradient>
    </defs>
    <circle class="ig-a" cx="12" cy="12" r="12" transform="translate(0)"/>
    <path class="ig-b" d="M87.3,143.916a.577.577,0,0,0-.005.09v2.145H90.27a2.535,2.535,0,0,1-1.09,1.673,3.19,3.19,0,0,1-1.612.517,3.271,3.271,0,0,1-1.205-.141,3.345,3.345,0,0,1-2.29-2.888,3.22,3.22,0,0,1,.065-1,3.28,3.28,0,0,1,3.652-2.557,2.972,2.972,0,0,1,1.632.789l1.617-1.617a6.659,6.659,0,0,0-.984-.723,5.271,5.271,0,0,0-2.632-.718c-.176-.005-.357.01-.532.015a4.329,4.329,0,0,0-.914.141,5.569,5.569,0,0,0-4.209,5.068,5.173,5.173,0,0,0,.116,1.5,5.5,5.5,0,0,0,2.17,3.32,5.433,5.433,0,0,0,2.963,1.05,5.851,5.851,0,0,0,1.818-.181,4.824,4.824,0,0,0,2.732-1.793,5.958,5.958,0,0,0,.954-4.681Z" transform="translate(-78.074 -133.031)"/>
    <path class="ig-b" d="M329.029,192.634h-1.879V190.7h-1.517v1.934H323.7v1.517h1.934v1.939h1.517v-1.939h1.939v-1.517Z" transform="translate(-308.163 -181.672)"/>
</svg>