<svg xmlns="http://www.w3.org/2000/svg" 
    xmlns:xlink="http://www.w3.org/1999/xlink" width="32" height="32" viewBox="0 0 32 32">
    <defs>
        <style>.a{fill:currentColor;}.b{fill:#fff;fill-rule:evenodd;}</style>
        <linearGradient id="a" y1="0.5" x2="1" y2="0.5" gradientUnits="objectBoundingBox">
            <stop offset="0" stop-color="#245a9c"/>
            <stop offset="1" stop-color="#2b189c"/>
        </linearGradient>
    </defs>
    <circle class="a" cx="16" cy="16" r="16" transform="translate(0 0)"/>
    <path class="b" d="M179.516,108.125v9.713a.258.258,0,0,0,.261.255h3.7a.258.258,0,0,0,.261-.255v-9.87h2.679a.259.259,0,0,0,.261-.229l.254-2.972a.255.255,0,0,0-.261-.274h-2.94v-2.116a.9.9,0,0,1,.917-.895h2.063a.258.258,0,0,0,.261-.255V98.255a.258.258,0,0,0-.261-.255H183.22a3.665,3.665,0,0,0-3.71,3.619v2.868h-1.848a.258.258,0,0,0-.261.255v2.972a.258.258,0,0,0,.261.255h1.855Z" transform="translate(-166.208 -91.946)"/>
</svg>