<svg xmlns="http://www.w3.org/2000/svg" 
    xmlns:xlink="http://www.w3.org/1999/xlink" width="32" height="32" viewBox="0 0 32 32">
    <defs>
        <style>.a{fill:currentColor;}.b{fill:#fff;}</style>
        <linearGradient id="a" x1="0.146" y1="0.146" x2="0.854" y2="0.854" gradientUnits="objectBoundingBox">
            <stop offset="0" stop-color="#00cdff"/>
            <stop offset="1" stop-color="#0080ff"/>
        </linearGradient>
    </defs>
    <circle class="a" cx="16" cy="16" r="16" transform="translate(0 0)"/>
    <path class="b" d="M118.972,128.5a7.992,7.992,0,0,1-1.974.557c.319-.052.782-.622.971-.855a3.6,3.6,0,0,0,.658-1.185c.02-.032.033-.078-.007-.1a.115.115,0,0,0-.1.006,10.112,10.112,0,0,1-2.339.887.154.154,0,0,1-.163-.045,1.533,1.533,0,0,0-.2-.207,4.325,4.325,0,0,0-1.133-.693,3.982,3.982,0,0,0-1.739-.278,4.2,4.2,0,0,0-2.977,1.541,4.03,4.03,0,0,0-.795,1.58,4.242,4.242,0,0,0-.039,1.67c.013.091.007.1-.078.091a12.519,12.519,0,0,1-8.038-4.066c-.091-.1-.143-.1-.221.006a4.025,4.025,0,0,0,.7,4.785,6.383,6.383,0,0,0,.5.434,4.065,4.065,0,0,1-1.55-.434c-.091-.058-.143-.026-.15.078a2.8,2.8,0,0,0,.026.46,4.093,4.093,0,0,0,2.541,3.263,2.359,2.359,0,0,0,.515.155,4.691,4.691,0,0,1-1.524.045c-.111-.019-.156.032-.111.142a4.289,4.289,0,0,0,3.2,2.661c.143.026.287.026.436.058-.007.013-.02.013-.026.026a5.065,5.065,0,0,1-2.182,1.153,7.805,7.805,0,0,1-3.316.421c-.176-.026-.215-.026-.267,0s-.007.071.052.117c.228.149.456.278.69.408a11.039,11.039,0,0,0,2.215.881,11.059,11.059,0,0,0,14.631-11.383c0-.123.15-.194.234-.259a7.638,7.638,0,0,0,1.557-1.612.479.479,0,0,0,.1-.311v-.019C119.05,128.444,119.05,128.457,118.972,128.5Z" transform="translate(-93.352 -118.563)"/>
</svg>