<svg xmlns="http://www.w3.org/2000/svg" width="24" height="24" viewBox="0 0 24 24">
    <defs>
        <style>.a{fill:currentColor;}.b{fill:#fff;}</style>
    </defs>
    <g transform="translate(0)">
        <path class="a" d="M29,23.468A4.932,4.932,0,0,1,24.073,28.4H9.932A4.933,4.933,0,0,1,5,23.468V9.327A4.929,4.929,0,0,1,9.932,4.4h14.14A4.928,4.928,0,0,1,29,9.327Z" transform="translate(-5 -4.4)"/>
        <g transform="translate(2.564 5.898)">
            <path class="b" d="M68.8,130.8H62.99v2.076H66.47a3.739,3.739,0,1,1-3.525-5.019,3.669,3.669,0,0,1,2.371.868h.1l1.533-1.558a5.891,5.891,0,0,0-4-1.568,6.045,6.045,0,0,0,0,12.088,5.847,5.847,0,0,0,3.628-1.247,6.05,6.05,0,0,0,1.647-1.987,6.179,6.179,0,0,0,.478-1.237,6.36,6.36,0,0,0,.1-1.622C68.8,131.329,68.8,131.067,68.8,130.8Z" transform="translate(-57 -125.6)"/>
            <rect class="b" width="1.745" height="5.206" transform="translate(15.318 3.421)"/>
            <rect class="b" width="5.206" height="1.74" transform="translate(13.588 5.157)"/>
        </g>
    </g>
</svg>