<svg xmlns="http://www.w3.org/2000/svg" xmlns:xlink="http://www.w3.org/1999/xlink" width="1505.135" height="1038.059" viewBox="0 0 1505.135 1038.059"><defs><style>.a{fill:#4d8af0;}.b{fill:#eee;}.c{fill:#e0e0e0;}.d{opacity:0.5;}.e{fill:url(#a);}.f{fill:#fda57d;}.g{opacity:0.1;}.h{fill:#fff;}.i{fill:#333;}.j{fill:#f55f44;}.k{fill:url(#b);}.l{fill:#f0b429;}.m,.r{opacity:0.2;}.n{fill:url(#c);}.o{fill:url(#d);}.p{fill:url(#e);}.q{fill:url(#f);}.s{fill:url(#g);}.t{opacity:0.3;}.u{fill:url(#h);}.v{fill:url(#i);}.w{fill:url(#j);}.x{fill:url(#k);}.y{fill:url(#l);}.z{fill:url(#m);}.aa{fill:url(#n);}.ab{fill:url(#o);}.ac{fill:url(#p);}.ad{fill:url(#q);}.ae{fill:url(#r);}.af{fill:url(#s);}.ag{fill:url(#t);}.ah{fill:url(#u);}</style><linearGradient id="a" x1="0.5" y1="1" x2="0.5" gradientUnits="objectBoundingBox"><stop offset="0" stop-color="gray" stop-opacity="0.251"/><stop offset="0.54" stop-color="gray" stop-opacity="0.122"/><stop offset="1" stop-color="gray" stop-opacity="0.102"/></linearGradient><linearGradient id="b" x1="11.47" y1="33.141" x2="11.47" y2="32.127" xlink:href="#a"/><linearGradient id="c" x1="11.544" y1="33.584" x2="11.544" y2="32.57" xlink:href="#a"/><linearGradient id="d" x1="7.8" y1="22.569" x2="7.8" y2="21.562" xlink:href="#a"/><linearGradient id="e" x1="10.897" y1="33.438" x2="10.897" y2="32.452" xlink:href="#a"/><linearGradient id="f" x1="11.176" y1="33.465" x2="11.176" y2="32.452" xlink:href="#a"/><linearGradient id="g" x1="7.509" y1="22.781" x2="7.509" y2="21.774" xlink:href="#a"/><linearGradient id="h" x1="6.632" y1="23.498" x2="6.632" y2="22.491" xlink:href="#a"/><linearGradient id="i" x1="6.008" y1="26.1" x2="6.008" y2="25.093" xlink:href="#a"/><linearGradient id="j" x1="11.623" y1="33.309" x2="11.623" y2="32.322" xlink:href="#a"/><linearGradient id="k" x1="12.431" y1="29.02" x2="12.431" y2="28.034" xlink:href="#a"/><linearGradient id="l" x1="11.313" y1="29.417" x2="11.313" y2="28.431" xlink:href="#a"/><linearGradient id="m" x1="10.236" y1="27.427" x2="10.236" y2="26.441" xlink:href="#a"/><linearGradient id="n" x1="11.03" y1="35.188" x2="11.03" y2="34.202" xlink:href="#a"/><linearGradient id="o" x1="7.653" y1="23.243" x2="7.653" y2="22.23" xlink:href="#a"/><linearGradient id="p" x1="3.07" y1="11.566" x2="3.07" y2="10.532" xlink:href="#a"/><linearGradient id="q" x1="1.664" y1="6.158" x2="1.664" y2="5.134" xlink:href="#a"/><linearGradient id="r" x1="3.627" y1="10.765" x2="3.627" y2="9.763" xlink:href="#a"/><linearGradient id="s" x1="3.611" y1="10.786" x2="3.611" y2="9.783" xlink:href="#a"/><linearGradient id="t" x1="7.529" y1="22.952" x2="7.529" y2="21.939" xlink:href="#a"/><linearGradient id="u" x1="7.548" y1="23.5" x2="7.548" y2="22.486" xlink:href="#a"/></defs><g transform="translate(0)"><rect class="a" width="125.785" height="19.109" transform="translate(29.339 374.953)"/><path class="b" d="M23.286,235.85,9.05,880.3h8.9l19.71-644Z" transform="translate(6.054 157.761)"/><path class="b" d="M98.7,235.85,112.918,880.3H104.04l-19.71-644Z" transform="translate(56.409 157.761)"/><path class="c" d="M39.754,236.3,24.5,880.3H35.164L49.25,235.85Z" transform="translate(16.388 157.761)"/><path class="c" d="M82.269,236.3l15.27,644H86.859L72.79,235.85Z" transform="translate(48.69 157.761)"/><rect class="c" width="80.892" height="9.78" transform="translate(53.338 959.837)"/><rect class="c" width="87.117" height="9.78" transform="translate(50.668 905.615)"/><rect class="c" width="84.447" height="9.78" transform="translate(53.338 852.276)"/><rect class="c" width="80.892" height="9.78" transform="translate(53.338 798.054)"/><rect class="c" width="80.892" height="8.895" transform="translate(53.338 742.062)"/><rect class="c" width="78.222" height="10.664" transform="translate(56.008 688.724)"/><rect class="c" width="75.551" height="7.11" transform="translate(56.008 635.385)"/><rect class="c" width="66.673" height="11.549" transform="translate(58.662 578.509)"/><rect class="c" width="69.326" height="9.78" transform="translate(58.662 525.171)"/><rect class="c" width="69.326" height="10.664" transform="translate(58.662 470.064)"/><rect class="c" width="63.118" height="10.664" transform="translate(62.217 415.841)"/><rect class="a" width="184.881" height="39.119" transform="translate(0 338.504)"/><g class="d" transform="translate(31.819 63.418)"><path class="e" d="M311.435,177l-64.3,41.89a12.116,12.116,0,0,0-4.172-6.576,10.631,10.631,0,0,0,.35-6.309,3.955,3.955,0,0,0-.684-1.669,2.821,2.821,0,0,0-2.52-.7l-10.214.668a5.357,5.357,0,0,0-3.338.968c-1.435,1.2-1.869,3.722-3.338,4.79-.985.7-2.236.634-3.338,1.185-2.353,1.252-2.871,5.007-3.054,8.061-.25,4.172-.234,9.079,2.487,11.682,1.986,1.852,4.74,1.669,7.243,1.535l2.52-.2a12.041,12.041,0,0,0,2,.951v3.555h-.467s-28.822-8.345-60.481,78.839h-.551s-4.673,15.855,2.8,13.067c6.509-2.437,6.676-10.564,6.559-12.6h.434s13.068-38.251,33.6-42.924c0,0,14.937,18.658-9.329,55.975h18.992a28.989,28.989,0,0,0,2.47,12.133c5.591,11.2-11.2,117.558-11.2,117.558h14l7.043-35.247.885,35.247H246.1L256.361,391.1l-1.4-81.643V288.316l1.869,2.487v-32.66h27.053l4.673-36.382h-.484a44.029,44.029,0,0,0-.317-7.61l34.88-7.327C328.124,183.509,311.435,177,311.435,177Zm-30.541,45.327-8.178,20.911s-22.4-10.264-30.791-6.525h-.467v-4.439a12.116,12.116,0,0,0,6.025-9.646l33.628-7.059a21.31,21.31,0,0,0-.234,6.742Z" transform="translate(-168.136 -177)"/></g><path class="f" d="M241.523,212.388s1.068-15.421-3.738-12.033-2.737,12.984-2.737,12.984Z" transform="translate(-91.856 -98.285)"/><path class="f" d="M171.719,260.07s-4.439,15.1,2.67,12.45,6.225-12.45,6.225-12.45Z" transform="translate(-134.836 -58.016)"/><rect class="f" width="9.78" height="8.895" transform="translate(95.561 121.162)"/><rect class="a" width="7.994" height="40.004" transform="translate(87.551 170.061)"/><rect class="g" width="7.994" height="40.004" transform="translate(87.551 170.061)"/><path class="h" d="M63.359,76.07h9.246a9.6,9.6,0,0,1,9.6,9.6V145.4H53.83V85.666a9.6,9.6,0,0,1,9.53-9.6Z" transform="translate(36.007 50.884)"/><circle class="f" cx="11.549" cy="11.549" r="11.549" transform="translate(88.001 101.169)"/><path class="a" d="M229.218,215.153s-27.554-7.994-57.777,75.551h8.9s12.45-36.449,31.993-40.888c0,0,14.219,17.774-8.9,53.4h18.675V291.3a207.979,207.979,0,0,1,6.676-53.539,43.391,43.391,0,0,0,.434-22.613Z" transform="translate(-134.107 -88.199)"/><path class="a" d="M212.45,220.769v2.67s6.225,27.554,11.549,45.327l2.72,3.621V241.213H252.5l4.439-34.663h-7.11l-8.094,20.427S220.444,217.2,212.45,220.769Z" transform="translate(-106.675 -93.815)"/><path class="i" d="M207.134,256.637s-5.34,19.56,0,30.224-10.664,112-10.664,112h13.351L228.93,303.3l3.1-46.729Z" transform="translate(-117.364 -60.357)"/><path class="i" d="M79.569,117.61,80.9,195.381l-9.78,64.453h-9.78L57.79,117.61Z" transform="translate(38.656 78.67)"/><path class="i" d="M213.949,209.088a4.606,4.606,0,0,1,.868-1.035,2.186,2.186,0,0,1,1.1-.3c2.42-.2,5.207-.25,6.676-2.537a9.179,9.179,0,0,0,.734-6.676,3.755,3.755,0,0,0-.651-1.669,2.687,2.687,0,0,0-2.4-.668l-9.73.634a5.106,5.106,0,0,0-3.121.918c-1.368,1.152-1.769,3.538-3.2,4.573-.951.668-2.136.6-3.138,1.135-2.236,1.185-2.72,4.723-2.9,7.677-.234,3.972-.234,8.645,2.37,11.065,1.886,1.769,4.506,1.669,6.893,1.469l4.439-.367a2.053,2.053,0,0,0,1.252-.384,3.338,3.338,0,0,0,.6-2.654c-.117-2.236-.35-4.773-1.819-6.142a5.76,5.76,0,0,1-.951-.9C209.377,210.757,213.115,210.189,213.949,209.088Z" transform="translate(-116.285 -100.776)"/><path class="j" d="M276.712,181s16,6.225,10.664,28.371l-72,15.1V220.92Z" transform="translate(-104.715 -110.906)"/><rect class="g" width="125.335" height="3.555" transform="translate(29.773 377.173)"/><rect class="g" width="9.78" height="1.786" transform="translate(50.217 627.842)"/><rect class="g" width="9.78" height="1.786" transform="translate(126.67 627.842)"/><rect class="b" width="125.335" height="15.104" transform="translate(29.339 613.172)"/><path class="k" d="M164.608,40.41l1.252-.634-.3-.033.1-.067-.184.05L131.03,35.27l.734,11.4,1.085,10.114,2.12-1.085,1.969,4.473Z" transform="translate(87.647 23.592)"/><path class="l" d="M132.16,44.512l1,9.262,30.791-15.6-26.736.584Z" transform="translate(88.402 25.532)"/><path class="m" d="M132.16,44.512l1,9.262,30.791-15.6-26.736.584Z" transform="translate(88.402 25.532)"/><path class="l" d="M131.75,35.72l32.477,4.089-31.793,6.342Z" transform="translate(88.128 23.893)"/><path class="l" d="M136.752,56.885l26.8-18.775L132.48,47.356Z" transform="translate(88.616 25.492)"/><path class="n" d="M264.685,11.82l1.252-.634-.3-.05.1-.067-.184.067L231.09,6.68l.751,11.4,1.085,10.114,2.12-1.085,1.969,4.473Z" transform="translate(154.577 4.468)"/><path class="l" d="M232.23,15.922l1,9.262,30.791-15.6-26.736.584Z" transform="translate(155.34 6.408)"/><path class="m" d="M232.23,15.922l1,9.262,30.791-15.6-26.736.584Z" transform="translate(155.34 6.408)"/><path class="l" d="M231.82,7.13,264.3,11.219,232.5,17.561Z" transform="translate(155.065 4.769)"/><path class="l" d="M236.822,28.3l26.8-18.775L232.55,18.749Z" transform="translate(155.554 6.368)"/><path class="o" d="M447.36,1.4,449.079.117l-.451.017L448.745,0l-.25.134L395.44,2.32l4.072,16.989,4.239,14.937,2.921-2.186,4.106,6.225Z" transform="translate(264.512)"/><path class="l" d="M398.89,18.314,402.779,32,445.135.54l-40.12,7.794Z" transform="translate(266.819 0.361)"/><path class="m" d="M398.89,18.314,402.779,32,445.135.54l-40.12,7.794Z" transform="translate(266.819 0.361)"/><path class="l" d="M396.66,2.776,446.627.54,400.382,18.314Z" transform="translate(265.328 0.361)"/><path class="l" d="M408.7,35.694,444.226.48,399.8,22.426Z" transform="translate(267.428 0.321)"/><path class="p" d="M356.093,63.654l1.368-.317-.284-.1.117-.05h-.2L324.735,50.57l-2.019,11.248L321.33,71.882l2.32-.534.818,4.806Z" transform="translate(214.939 33.827)"/><path class="l" d="M323.368,59.1,322.1,68.315l33.645-7.71L329.66,54.73Z" transform="translate(215.454 36.609)"/><path class="m" d="M323.368,59.1,322.1,68.315l33.645-7.71L329.66,54.73Z" transform="translate(215.454 36.609)"/><path class="l" d="M324.713,51.18l30.524,11.8-32.377-1.5Z" transform="translate(215.963 34.235)"/><path class="l" d="M324.612,69.926,355.153,58.16,322.76,59.645Z" transform="translate(215.896 38.904)"/><g class="d" transform="translate(347.132 211.183)"><path class="q" d="M241.6,131.7l1.235-.651-.284-.033.083-.067-.184.05L208,126.54l.751,11.415,1.085,10.1,2.119-1.085,1.953,4.473Z" transform="translate(-208 -126.54)"/><path class="l" d="M209.14,135.8l1,9.246,30.791-15.6-26.736.584Z" transform="translate(-207.237 -124.6)"/><path class="m" d="M209.14,135.8l1,9.246,30.791-15.6-26.736.584Z" transform="translate(-207.237 -124.6)"/><path class="l" d="M208.73,126.99l32.477,4.089-31.793,6.359Z" transform="translate(-207.512 -126.239)"/><path class="l" d="M213.732,148.155l26.8-18.775-31.075,9.246Z" transform="translate(-207.023 -124.64)"/></g><g class="r" transform="translate(702.175 62.4)"><path class="s" d="M472.643,38.792l1.719-1.3-.451.017.133-.117-.267.134-53.038,2.17,4.072,16.989,4.222,14.953,2.92-2.186,4.122,6.225Z" transform="translate(-420.74 -37.39)"/><path class="l" d="M424.18,55.7l3.889,13.668L470.425,37.93,430.3,45.724Z" transform="translate(-418.439 -37.029)"/><path class="m" d="M424.18,55.7l3.889,13.668L470.425,37.93,430.3,45.724Z" transform="translate(-418.439 -37.029)"/><path class="l" d="M421.95,40.166l49.967-2.236L425.672,55.7Z" transform="translate(-419.931 -37.029)"/><path class="l" d="M433.985,73.084,469.516,37.87,425.09,59.816Z" transform="translate(-417.83 -37.069)"/></g><g class="t" transform="translate(843.481 247.749)"><path class="u" d="M557.33,149.852l1.7-1.285-.451.017.133-.134-.267.134L505.41,150.77l4.072,16.989,4.239,14.953,2.9-2.2,4.122,6.242Z" transform="translate(-505.41 -148.45)"/><path class="l" d="M508.85,166.764l3.889,13.685,42.373-31.459-40.137,7.794Z" transform="translate(-503.109 -148.089)"/><path class="m" d="M508.85,166.764l3.889,13.685,42.373-31.459-40.137,7.794Z" transform="translate(-503.109 -148.089)"/><path class="l" d="M506.62,151.226,556.6,148.99l-46.262,17.774Z" transform="translate(-504.601 -148.089)"/><path class="l" d="M518.655,184.137l35.531-35.2L509.76,170.869Z" transform="translate(-502.5 -148.122)"/></g><g class="t" transform="translate(1280.267 339.522)"><path class="v" d="M819.033,204.842l1.719-1.3-.451.017.134-.117-.267.117-53.038,2.186,4.072,16.989,4.222,14.953,2.92-2.186,4.106,6.225Z" transform="translate(-767.13 -203.44)"/><path class="l" d="M770.57,221.761l3.889,13.668,42.357-31.459-40.12,7.794Z" transform="translate(-764.829 -203.086)"/><path class="m" d="M770.57,221.761l3.889,13.668,42.357-31.459-40.12,7.794Z" transform="translate(-764.829 -203.086)"/><path class="l" d="M768.34,206.223l49.967-2.253-46.245,17.791Z" transform="translate(-766.321 -203.086)"/><path class="l" d="M780.375,239.134l35.531-35.214L771.48,225.849Z" transform="translate(-764.22 -203.119)"/></g><g class="d" transform="translate(541.777 233.046)"><path class="w" d="M359.393,152.741l1.369-.334-.284-.1.117-.05-.2.017-32.36-12.634-2.019,11.248-1.385,10.08,2.3-.551.834,4.806Z" transform="translate(-324.63 -139.64)"/><path class="l" d="M326.668,148.173l-1.268,9.212,33.645-7.71L332.96,143.8Z" transform="translate(-324.115 -136.857)"/><path class="m" d="M326.668,148.173l-1.268,9.212,33.645-7.71L332.96,143.8Z" transform="translate(-324.115 -136.857)"/><path class="l" d="M328.013,140.25l30.524,11.8-32.377-1.5Z" transform="translate(-323.607 -139.232)"/><path class="l" d="M327.913,159.006l30.541-11.766-32.393,1.469Z" transform="translate(-323.673 -134.556)"/></g><g class="d" transform="translate(1141.881 451.439)"><path class="x" d="M718.973,283.584l1.369-.317-.267-.117.1-.033h-.2L687.631,270.5,685.6,281.748l-1.385,10.063,2.32-.551.834,4.823Z" transform="translate(-684.21 -270.5)"/><path class="l" d="M686.242,279.033l-1.252,9.212,33.645-7.71-26.1-5.874Z" transform="translate(-683.688 -267.717)"/><path class="m" d="M686.242,279.033l-1.252,9.212,33.645-7.71-26.1-5.874Z" transform="translate(-683.688 -267.717)"/><path class="l" d="M687.593,271.11l30.541,11.8-32.393-1.5Z" transform="translate(-683.187 -270.092)"/><path class="l" d="M687.486,289.856l30.541-11.766-32.377,1.485Z" transform="translate(-683.247 -265.423)"/></g><g class="d" transform="translate(1105.182 220.195)"><path class="y" d="M696.983,145.041l1.369-.334-.284-.1.117-.05-.2.017-32.36-12.634-2.019,11.248-1.385,10.08,2.32-.551.834,4.806Z" transform="translate(-662.22 -131.94)"/><path class="l" d="M664.258,140.473l-1.268,9.212,33.662-7.71-26.1-5.875Z" transform="translate(-661.705 -129.157)"/><path class="m" d="M664.258,140.473l-1.268,9.212,33.662-7.71-26.1-5.875Z" transform="translate(-661.705 -129.157)"/><path class="l" d="M665.6,132.56l30.541,11.782-32.393-1.5Z" transform="translate(-661.197 -131.525)"/><path class="l" d="M665.5,151.306l30.541-11.766-32.393,1.469Z" transform="translate(-661.263 -126.856)"/></g><g class="r" transform="translate(1409.824 27.504)"><path class="z" d="M879.523,29.564l1.368-.317-.267-.1.1-.05-.2.017L848.165,16.48l-2.019,11.248-1.385,10.08,2.32-.551.834,4.806Z" transform="translate(-844.76 -16.48)"/><path class="l" d="M846.8,25.013l-1.268,9.212,33.662-7.71-26.1-5.875Z" transform="translate(-844.245 -13.697)"/><path class="m" d="M846.8,25.013l-1.268,9.212,33.662-7.71-26.1-5.875Z" transform="translate(-844.245 -13.697)"/><path class="l" d="M848.143,17.09l30.541,11.8-32.393-1.5Z" transform="translate(-843.737 -16.072)"/><path class="l" d="M848.036,35.852,878.577,24.07,846.2,25.555Z" transform="translate(-843.797 -11.403)"/></g><g class="r" transform="translate(282.996 89.904)"><path class="aa" d="M204.35,66.954l1.368-.317-.284-.117.117-.033h-.2L172.991,53.87l-2.019,11.248-1.4,10.063,2.336-.551.818,4.823Z" transform="translate(-169.57 -53.87)"/><path class="l" d="M171.618,62.4l-1.268,9.212L204,63.9,177.91,58.03Z" transform="translate(-169.048 -51.087)"/><path class="m" d="M171.618,62.4l-1.268,9.212L204,63.9,177.91,58.03Z" transform="translate(-169.048 -51.087)"/><path class="l" d="M172.962,54.48l30.524,11.8-32.377-1.5Z" transform="translate(-168.54 -53.462)"/><path class="l" d="M172.863,73.226,203.4,61.46,171.01,62.945Z" transform="translate(-168.607 -48.793)"/></g><path class="ab" d="M602.4,40.347l1.9-.985-.451-.067.15-.1-.284.083L551.06,32.47l1.151,17.44,1.652,15.454,3.238-1.686,3,6.843Z" transform="translate(368.607 21.719)"/><path class="l" d="M552.8,46.613l1.519,14.136L601.382,36.9l-40.855.9Z" transform="translate(369.771 24.683)"/><path class="m" d="M552.8,46.613l1.519,14.136L601.382,36.9l-40.855.9Z" transform="translate(369.771 24.683)"/><path class="l" d="M552.17,33.16,601.8,39.4l-48.582,9.713Z" transform="translate(369.349 22.181)"/><path class="l" d="M559.815,65.515,600.787,36.81l-47.5,14.119Z" transform="translate(370.098 24.622)"/><path class="ac" d="M705.244,229.088l4.907.3-.818-.634.417-.033-.667-.167L613.621,153.47,595.43,189.051l-14.87,32.31,8.328.5-2.1,16.956Z" transform="translate(388.339 102.657)"/><path class="l" d="M597.208,178.934,583.64,208.491l120.428,8.328L622.726,170.69Z" transform="translate(390.4 114.175)"/><path class="m" d="M597.208,178.934,583.64,208.491l120.428,8.328L622.726,170.69Z" transform="translate(390.4 114.175)"/><path class="l" d="M608.409,156.13l90.221,70.428L591.77,188.674Z" transform="translate(395.838 104.436)"/><path class="l" d="M587.17,217.535l114.153-8.378L591.442,181.22Z" transform="translate(392.761 121.219)"/><path class="ad" d="M1000.223,430.017l10.264.334-1.736-1.285.834-.1-1.385-.3L804.193,277.98l-35.714,75.434L739.49,421.773l17.39.551-3.3,35.5Z" transform="translate(494.648 185.942)"/><path class="l" d="M772.329,332.342,745.86,394.893l251.9,9.763L825.05,313.5Z" transform="translate(498.909 209.702)"/><path class="m" d="M772.329,332.342,745.86,394.893l251.9,9.763L825.05,313.5Z" transform="translate(498.909 209.702)"/><path class="l" d="M794.381,283.45,987.156,424.756,761.72,352.443Z" transform="translate(509.518 189.601)"/><path class="l" d="M753.85,412.642l237.719-24.716L760.476,336.59Z" transform="translate(504.254 225.147)"/><path class="ae" d="M837.706,34.839l4.473-2.036-1.018-.184.35-.217-.667.167L721.35,10.84l.567,39.97,1.953,35.5,7.594-3.438,6.075,15.971Z" transform="translate(482.514 7.251)"/><path class="l" d="M724.12,42.156l1.819,32.477L836.287,25.667,742.812,22.93Z" transform="translate(484.367 15.338)"/><path class="m" d="M724.12,42.156l1.819,32.477L836.287,25.667,742.812,22.93Z" transform="translate(484.367 15.338)"/><path class="l" d="M723.81,12.55,836.495,32.61,724.327,49.1Z" transform="translate(484.16 8.395)"/><path class="l" d="M738.131,85.148l96.98-60.8L724.93,51.052Z" transform="translate(484.909 16.288)"/><path class="af" d="M913.569,115.109l4.489-2.019-1.018-.184.334-.234-.651.167L797.23,91.11l.567,39.97,1.953,35.5,7.594-3.421,6.075,15.955Z" transform="translate(533.271 60.944)"/><path class="l" d="M800,122.436l1.8,32.477,110.348-48.966-93.475-2.737Z" transform="translate(535.124 69.038)"/><path class="m" d="M800,122.436l1.8,32.477,110.348-48.966-93.475-2.737Z" transform="translate(535.124 69.038)"/><path class="l" d="M799.68,92.83l112.684,20.06L800.214,129.379Z" transform="translate(534.91 62.094)"/><path class="l" d="M814.011,165.412l96.963-60.782L800.81,131.316Z" transform="translate(535.666 69.988)"/><path class="ag" d="M503.119,103.881l1.919-.985-.451-.05.133-.1-.284.083L451.8,96.02l1.152,17.423,1.636,15.454,3.238-1.669,3,6.842Z" transform="translate(302.211 64.228)"/><path class="l" d="M453.54,110.163l1.519,14.119,47.063-23.832-40.855.9Z" transform="translate(303.375 67.191)"/><path class="m" d="M453.54,110.163l1.519,14.119,47.063-23.832-40.855.9Z" transform="translate(303.375 67.191)"/><path class="l" d="M452.91,96.71l49.633,6.242-48.582,9.713Z" transform="translate(302.954 64.69)"/><path class="l" d="M460.545,129.065l40.972-28.705-47.5,14.119Z" transform="translate(303.696 67.131)"/><path class="ah" d="M693.359,89.6l1.9-.985-.434-.067.134-.1-.284.083L642.04,81.72l1.135,17.44,1.652,15.454,3.238-1.669,3,6.826Z" transform="translate(429.464 54.663)"/><path class="l" d="M643.78,95.863,645.3,110,692.362,86.15l-40.855.9Z" transform="translate(430.627 57.626)"/><path class="m" d="M643.78,95.863,645.3,110,692.362,86.15l-40.855.9Z" transform="translate(430.627 57.626)"/><path class="l" d="M643.15,82.42l49.633,6.225L644.2,98.358Z" transform="translate(430.206 55.131)"/><path class="l" d="M650.785,114.765,691.757,86.06,644.26,100.2Z" transform="translate(430.949 57.566)"/></g></svg>