<svg xmlns="http://www.w3.org/2000/svg" 
    xmlns:xlink="http://www.w3.org/1999/xlink" width="32" height="32" viewBox="0 0 32 32">
    <defs>
        <style>.a{fill:currentColor;}.b{fill:#fff;}</style>
        <linearGradient id="a" x1="0.146" y1="0.146" x2="0.853" y2="0.853" gradientUnits="objectBoundingBox">
            <stop offset="0" stop-color="#ff4c3c"/>
            <stop offset="0.956" stop-color="#ef053e"/>
            <stop offset="1" stop-color="#ee023e"/>
        </linearGradient>
    </defs>
    <circle class="a" cx="16" cy="16" r="16" transform="translate(0 0)"/>
    <path class="b" d="M89.15,145.395a.77.77,0,0,0-.007.121v2.86h3.965a3.38,3.38,0,0,1-1.453,2.23,4.254,4.254,0,0,1-2.15.69,4.361,4.361,0,0,1-1.607-.187,4.46,4.46,0,0,1-3.054-3.851,4.293,4.293,0,0,1,.087-1.339,4.373,4.373,0,0,1,4.869-3.409,3.962,3.962,0,0,1,2.177,1.051l2.156-2.156a8.877,8.877,0,0,0-1.313-.964,7.028,7.028,0,0,0-3.509-.958c-.234-.007-.475.013-.71.02a5.771,5.771,0,0,0-1.219.188,7.425,7.425,0,0,0-5.612,6.757,6.9,6.9,0,0,0,.154,2,7.335,7.335,0,0,0,2.893,4.427,7.244,7.244,0,0,0,3.951,1.4,7.8,7.8,0,0,0,2.424-.241,6.432,6.432,0,0,0,3.643-2.391,7.944,7.944,0,0,0,1.272-6.242Z" transform="translate(-76.847 -130.881)"/>
    <path class="b" d="M330.806,193.278h-2.5V190.7h-2.023v2.578H323.7V195.3h2.578v2.585H328.3V195.3h2.585v-2.023Z" transform="translate(-302.985 -178.663)"/>
</svg>