<svg xmlns="http://www.w3.org/2000/svg" width="24" height="24" viewBox="0 0 24 24">
    <defs>
        <style>.a{fill:currentColor;}.b{fill:#fff;}</style>
    </defs>
    <path class="a" d="M29,24.068a4.928,4.928,0,0,1-4.927,4.927H9.932A4.926,4.926,0,0,1,5,24.068V9.932A4.933,4.933,0,0,1,9.932,5h14.14A4.932,4.932,0,0,1,29,9.932Z" transform="translate(-5 -5)"/>
    <path class="b" d="M212.907,72.145h2.338V68.7h-3.5a4.885,4.885,0,0,0-3.605,1.661s-.957.845-.972,3.327h0v2.589H203.7v3.662h3.466V89.4h3.993V79.935h3.435l.481-3.662h-3.916V73.684h0A1.548,1.548,0,0,1,212.907,72.145Z" transform="translate(-195.062 -65.401)"/>
</svg>